<svg xmlns="http://www.w3.org/2000/svg" width="1210.226" height="1207.099" viewBox="0 0 1210.226 1207.099"><g transform="translate(-15452.233 -15039.47)"><path d="M634.761,30.41C300.715,30.771,30.009,301.477,29.648,635.523c33.224,802.764,1177.132,802.533,1210.226,0C1239.513,301.477,968.807,30.771,634.761,30.41" transform="translate(15422.585 15009.06)" fill="none"/><path d="M237.7,1155.534c-2.617-3.158-4.862-5.825-7.088-8.512a9.831,9.831,0,0,1-1.774-3.469c-5.524-18.136-11.118-36.242-16.592-54.388a307.662,307.662,0,0,1-9.173-37.776c-2.216-13.113-3.589-26.3-2.767-39.63a137.488,137.488,0,0,1,3.058-22.948,163.353,163.353,0,0,0,3.449-22.888,152.887,152.887,0,0,1,3.659-21.986c2.266-9.484,4.271-19.048,6.988-28.432a138.5,138.5,0,0,1,10-25.164c11.71-22.677,24.191-44.924,36.563-67.26,9.975-17.976,19.76-36.071,29.735-54.037,8.893-16.021,15.429-32.994,20.723-50.478a514.543,514.543,0,0,0,16.051-69.827c4.521-29.134,14.316-56.433,27.79-82.519,11.529-22.326,24.983-43.5,38.878-64.383,5.6-8.431,12.632-15.64,20.2-22.347,10.837-9.594,22.667-17.875,34.678-25.886a335.5,335.5,0,0,0,30.517-22.728c23.2-19.69,42.127-42.758,55.771-70.027a107.585,107.585,0,0,0,10.276-31.009,84.772,84.772,0,0,0-3.97-42.638,74.4,74.4,0,0,0-12.6-22.868c-.461-.561-.932-1.123-1.434-1.624a.7.7,0,0,0-1.012-.09.49.49,0,0,0-.12.13c-2.466,4.932-5.564,9.624-6.406,15.229-.682,4.461-1.233,8.963-1.714,13.454-1.153,10.727-2.286,21.444-3.308,32.182-.491,5.083-.612,10.186-1.093,15.279a71.79,71.79,0,0,1-15.85,38.688,88.4,88.4,0,0,1-11.539,11.94q-37.5,32.242-74.96,64.513-13.76,11.865-27.389,23.85a58.517,58.517,0,0,0-12.762,16.552q-12.271,22.692-24.442,45.465c-7.689,14.416-15.178,28.923-22.337,43.6a114.07,114.07,0,0,1-24.181,32.482c-11.118,10.617-23.64,19.419-36.533,27.74a23.33,23.33,0,0,1-8.993,3.2,60.285,60.285,0,0,1-14.838.491q-20.061-1.609-40.1-3.349c-10.888-.972-21.755-2.135-32.643-3.088-5.374-.481-10.767-.712-16.151-1.1a140.042,140.042,0,0,1-38.447-7.78A86.394,86.394,0,0,1,90.43,617.751a55.074,55.074,0,0,1-13.935-17.224,113.131,113.131,0,0,1-7.73-19.028q-2.978-9.594-5.694-19.279c-1.764-6.256.622-10.587,6.747-12.552a13.881,13.881,0,0,1,12.492,2,70.84,70.84,0,0,0,10.647,6.015,81.219,81.219,0,0,0,22.728,6.075c7.96,1.023,15.96,1.444,23.971,1.925a208,208,0,0,1,43.019,7.349c12.512,3.459,24.853,7.459,37.234,11.319a327.924,327.924,0,0,0,32.984,8.6c1.634.321,2,.3,2.777-1.233.882-1.724.8-2.316-.451-3.439a36.071,36.071,0,0,0-11.459-7.058c-33.515-12.321-66.98-24.8-100.485-37.184-10.4-3.83-20.893-7.389-31.069-11.78-4.822-2.075-9.524-4.411-14.206-6.787a41.22,41.22,0,0,1-14.637-12.883,52.1,52.1,0,0,1-9.424-23.73,142.521,142.521,0,0,1,.09-38.808,23.653,23.653,0,0,1,3.469-9.354,102.107,102.107,0,0,1,6.677-9.213c10.286-13.244,20.472-26.577,30.878-39.731a16.255,16.255,0,0,0,3.469-11.82c-.1-1.454-.441-1.865-1.835-1.734a76.745,76.745,0,0,0-12.061,2.045q-20.753,5.369-41.485,10.727-4.662,1.2-9.324,2.386c-2.907.722-2.917.712-4.331-2.035l-.6-1.163a2.665,2.665,0,0,1-.03-2.516c1.454-3.028,2.857-6.075,4.4-9.043a14.147,14.147,0,0,1,3.93-4.642c8.181-6.346,16.281-12.792,24.522-19.068a160.305,160.305,0,0,1,28.512-16.993c22.377-10.677,45.235-20.251,68.153-29.705,7.148-2.947,14.306-5.855,21.414-8.862A76.655,76.655,0,0,0,225.081,282.4a65.414,65.414,0,0,0,9.414-12.03c12.371-20.622,29.836-35.63,51.019-46.6a210.045,210.045,0,0,1,31.139-12.722q14.331-4.722,28.753-9.143a319.436,319.436,0,0,0,61.225-26.718,80.008,80.008,0,0,0,11.068-7.028A38.344,38.344,0,0,0,432.066,142.5a80,80,0,0,1,1.714-10.787c2.917-10.457,9.073-18.146,19.3-22.276a5.893,5.893,0,0,1,6.948,1.815,1.419,1.419,0,0,1,.14,1.193c-.471,1.063-1,2.1-1.574,3.108q-12.948,23.083-25.9,46.177c-1.213,2.165-2.436,4.321-3.609,6.506a3.467,3.467,0,0,0,1.434,5.093,1.466,1.466,0,0,0,1.213.07c5.955-3.328,12.291-5.985,16.823-11.519q25.625-31.339,49.926-63.721c11.81-15.77,25.535-29.555,41.886-40.643a137.3,137.3,0,0,1,49.987-21.274,142.853,142.853,0,0,1,40.9-2.3,177.886,177.886,0,0,1,41.9,8.492Q722.9,59.4,750.492,104.19c8.171,13.3,16,26.808,23.76,40.332,9.153,15.93,18.256,31.891,27.79,47.6a120.263,120.263,0,0,0,16.482,22.016,91.028,91.028,0,0,0,9.444,8.471,179.219,179.219,0,0,1,32.583,32.212,129.143,129.143,0,0,1,24.372,51.821,135.453,135.453,0,0,1,2.506,40.462c-.812,9.294-1.564,18.607-1.694,27.941-.351,25,3.108,49.435,12.782,72.714,1.785,4.291,3.7,8.562,5.835,12.712a129.794,129.794,0,0,1,13.173,41.034,138.779,138.779,0,0,1,.531,34.9c-.491,4.491-1.263,8.963-1.6,13.464a72.6,72.6,0,0,0-.14,11.339,211.821,211.821,0,0,1-6.988,71.882,228.039,228.039,0,0,1-26.888,60.062,323.979,323.979,0,0,1-33.565,44.212c-32.171,36-69.6,65.506-111.262,89.717-7.309,4.251-14.7,8.391-22.216,12.261a121.672,121.672,0,0,0-34.307,26.748c-6.607,7.238-12.632,14.908-18.547,22.7-6.617,8.722-13.153,17.494-20.2,25.866-1.774,2.115-1.724,2.356.1,4.361,1.343,1.474,1.644,1.524,3.329.521.872-.531,1.714-1.113,2.566-1.674l38.3-25.374L856.26,780.152a11.8,11.8,0,0,1,1.464-.952c1.253-.612,2.416-2.516,3.74-1.564,1.1.8.271,2.727.16,4.15-1.2,15.519-5.3,30.407-10.487,45a184.237,184.237,0,0,1-24.973,47.931c-16.281,22.136-37.194,38.448-62.177,49.706-8.121,3.649-16.562,6.466-24.863,9.654a160.012,160.012,0,0,0-19.84,9.153,184.056,184.056,0,0,1-101.056,22.5,111.5,111.5,0,0,0-14.868-.451,46.786,46.786,0,0,0-31.049,13.364c-25.956,25.294-56.854,41.936-91.261,52.483a383.151,383.151,0,0,1-45.525,10.677c-14.066,2.486-27.971,5.765-41.9,8.963q-9.579,2.226-19.169,4.431c-21.264,4.932-40.833,13.755-59.1,25.595-16.221,10.506-30.938,22.888-44.974,36.111-1.063,1.013-2.1,2.055-3.168,3.028a139.106,139.106,0,0,0-21.424,24.773c-1.965,2.887-4.1,5.674-6.176,8.491-.5.682-1.073,1.3-1.915,2.336m533.481-403.5c.221-.04.4,0,.5-.08,5.584-4.211,11.138-8.492,15.559-13.986q6.286-7.865,12.381-15.86c7.79-10.216,15.72-20.281,24.743-29.485a166.776,166.776,0,0,0,20.923-26.337c19.068-29.455,26.307-61.626,22.046-96.394a20.824,20.824,0,0,1,.7-7.339,1.446,1.446,0,0,1,1.6-1.173c.722.03,1.444.16,2.166.241,3.188.341,6.376.692,9.564,1.013,1.624.15,2.075-.361,1.975-2.035-.12-2.025-.331-4.06-.381-6.105-.341-15.018-.541-30.036-1.825-45a160.573,160.573,0,0,0-5.424-30.968c-3.97-13.755-10.256-26.377-19.67-37.224a211.35,211.35,0,0,1-16.311-21.635,212.111,212.111,0,0,0-54.408-56.323c-20.422-14.457-42.8-24.883-66.629-32.312a242.345,242.345,0,0,1-26.607-9.915c-16.111-7.148-30.958-16.3-43.871-28.382a29.965,29.965,0,0,0-9.484-6.116c-2.035-.782-4.06-1.624-6.1-2.426-1.764-.682-1.865-.6-3.008.612-1.323,1.424-1.935,2.837-.722,4.672a15.191,15.191,0,0,1,1.233,2.8,29.8,29.8,0,0,0,7.96,11.3c17.344,15.84,34.527,31.841,51.851,47.691,12.592,11.509,24.993,23.229,38.187,34.076,6.085,5,11.8,10.477,16.231,17.083,13.264,19.78,24.983,40.432,33.906,62.579a197.778,197.778,0,0,1,14.136,60.654,234.2,234.2,0,0,1-1.173,41.064q-1.083,10.226-2.146,20.442c-.9,8.682-1.694,17.394-2.757,26.076-.662,5.363-1.734,10.687-4.311,15.519-7.419,13.9-14.306,28.061-22.2,41.706-5.925,10.236-12.281,20.211-20.281,28.974-16.572,18.166-29.374,38.758-39.761,60.964-8.361,17.845-15.058,36.342-21.825,54.819a47.265,47.265,0,0,0-2.927,16.231c0,2.115.662,3.288,2.426,4.13,1.474.692,1.975.722,3.068-.481,2.747-3.028,5.514-6.035,8.141-9.163,6.105-7.258,11.4-15.138,17.013-22.768q20.467-27.85,40.824-55.791a27.982,27.982,0,0,1,5.374-5.724c3-2.316,6.065-4.542,9.133-6.787,1.143-.822,1.694-.662,2.326.712,1.885,4.1,3.69,8.261,5.574,12.361.652,1.424,1.013,3.028,2.266,4.1M398.21,978.174a6.194,6.194,0,0,0,1.895-2.386,178.515,178.515,0,0,0,16.141-33.415c1.123-3.168,2.306-6.3,3.629-9.374,8.542-19.961,21.434-36.332,39.861-48.1,5.043-3.208,9.905-6.687,14.627-10.356,19.7-15.309,39.851-29.986,60.924-43.38,23.931-15.2,48.874-28.442,75.4-38.588a60.853,60.853,0,0,0,16.131-9.514,99.967,99.967,0,0,0,12.411-11.69,306.825,306.825,0,0,0,25.836-33.645c21.494-32.2,37.615-67.08,50.5-103.492a183.029,183.029,0,0,0,9.374-42.608,172.48,172.48,0,0,0,.541-31.029,203.024,203.024,0,0,0-4.251-28.953A214.5,214.5,0,0,0,699.834,475.9c-5.394-9.845-11.228-19.459-16.812-29.194a355.205,355.205,0,0,1-22.116-44.633,197.676,197.676,0,0,1-9.374-29.1c-1.323-5.795-4.411-10.767-7.258-15.84-.992-1.774-2.546-.952-3.9-.692-1.3.251-1.734.8-1.674,2.136.331,7.569.261,15.168,1.935,22.627q10.151,45.43,20.352,90.86c4.692,21.043,9.695,42.036,12.171,63.521.992,8.552,1.714,17.113,1.985,25.715a227.428,227.428,0,0,1-.541,25.344A204.017,204.017,0,0,1,669.557,619a179.285,179.285,0,0,1-35.721,71.371,69.275,69.275,0,0,0-5.053,7.118,177.377,177.377,0,0,1-39.37,44.814,227.531,227.531,0,0,1-50.648,30.9A146.6,146.6,0,0,0,507.5,792.293c-11.078,8.812-21.675,18.186-32.041,27.82a206.553,206.553,0,0,0-31.179,36.513c-13.865,20.742-27.129,41.856-39.44,63.541-3.74,6.607-7.539,13.183-11,19.911-6.1,11.89-5.394,23.61,1.494,34.989.732,1.2,1.343,2.627,2.877,3.108m207.967-495.9q-.09-9.4-.712-18.8a281.974,281.974,0,0,0-3.98-31.63c-5.2-28.522-14.206-55.9-25.214-82.659-1.584-3.86-4.331-6.9-6.918-10.035-.4-.491-1.3-.331-1.393.211-1.033,5.885-2.476,11.7-1.965,17.765.672,8.121,1.323,16.271,1.945,24.4.5,6.547,1.193,13.093,1.364,19.63.511,20.291-.361,40.533-1.4,60.784a326.131,326.131,0,0,1-4.642,40.823,97.307,97.307,0,0,1-12.371,33.445c-6.928,11.489-15.88,21.214-25.936,29.986a226.072,226.072,0,0,1-24.8,18.687c-11.83,7.74-23.76,15.359-35.67,22.968-9.454,6.065-18.948,12.061-28.232,18.387a88.426,88.426,0,0,0-28.472,31.51c-2.5,4.622-5.023,9.223-7.419,13.885-7.048,13.765-13.835,27.65-21.083,41.295a326.433,326.433,0,0,0-26.557,68.343c-3.018,11.158-5.023,22.437-4.983,34.066a133.386,133.386,0,0,0,2.115,24.372c.892,4.712,2.125,9.374,3.308,14.026.531,2.1.842,2.226,3.048,2.4.291.02.582.05.872.06,1.414.02,1.845-.261,2.105-1.614a151.366,151.366,0,0,0,2.6-15.97c.541-6.847,1.484-13.6,2.617-20.372a213.508,213.508,0,0,1,17.314-55.791c13.885-29.535,33.856-54.358,58.869-75.17,18.637-15.509,38.407-29.485,58.578-42.909,13.113-8.722,26.477-17.063,39.941-25.234a135.934,135.934,0,0,0,30.988-25.475c14.928-16.632,24.492-36.081,29.956-57.626,4.471-17.635,6.085-35.6,6.135-53.736M593.555,141.114a91.955,91.955,0,0,0-17.194,2.135,132.934,132.934,0,0,0-20.221,7.028c-19.83,8.231-38.407,19.008-57.516,28.693a12.676,12.676,0,0,0-2.827,2.055c-2.9,2.677-3.1,5.414-.692,8.481a17.412,17.412,0,0,0,4.622,3.98,78.127,78.127,0,0,0,11.238,5.855,41.077,41.077,0,0,0,30.287,1.083c4.953-1.734,10.015-3.158,15.058-4.562,10.958-3.048,21.935-6.005,32.9-8.983a65.453,65.453,0,0,1,8.582-1.644,42.507,42.507,0,0,1,31.369,8.121,52.883,52.883,0,0,1,10.106,9.634,440.946,440.946,0,0,1,26.447,35.931,178.389,178.389,0,0,0,12.832,17.153c13.063,15.369,28.622,27.329,47.33,35.109q13.745,5.714,27.309,11.81a390.523,390.523,0,0,1,46.929,24.382,228.767,228.767,0,0,1,30.989,22.788c1.524,1.353,2.988,2.777,5.2,3,1.574.17,3.088.862,4.722.411.461-1.835-1.053-2.847-1.794-4.151a68.56,68.56,0,0,0-6-9.133c-18.687-23.048-40.683-42.1-67.09-55.9a236.813,236.813,0,0,1-26.467-16.231,137.312,137.312,0,0,1-20.552-17.645,185.225,185.225,0,0,1-22.677-29.394c-4.752-7.539-8.913-15.4-13.193-23.2a110.073,110.073,0,0,0-52.684-48.7,94.688,94.688,0,0,0-37.034-8.1M488.458,166.047c1.384-.06,2.426-.912,3.579-1.514,27.129-14.216,53.926-28.993,80.043-45,9.815-6.025,19.99-11.449,30.347-16.482,8.442-4.11,17.143-7.138,26.648-7.96a125.971,125.971,0,0,1,39.53,2.6c20.933,4.8,39.139,14.908,55.15,29.014q13.625,12.03,27.921,23.209c3.559,2.787,7.1,5.594,10.657,8.381,1.253.972,1.564.952,2.667.04a20.311,20.311,0,0,0,1.935-1.785,1.736,1.736,0,0,0,.351-2.015c-1.755-3.84-3.379-7.71-6.517-10.777-4.692-4.582-9.213-9.334-13.815-14.026-7.96-8.1-15.89-16.271-24.262-23.981-6.547-6.025-13.173-11.97-20.632-16.893-21.635-14.266-45.646-20.983-71.331-22.236a141.342,141.342,0,0,0-34.387,2.526c-14.577,2.9-28.342,7.91-40.9,15.94a208.172,208.172,0,0,0-20.562,15.579c-14.036,11.649-27.249,24.2-40.793,36.392a38.586,38.586,0,0,0-2.757,2.827c-5.554,6.2-7.72,16.251-2.857,26.166M861.513,348.078a7.446,7.446,0,0,0,.421-1.113,29.813,29.813,0,0,0-2.627-18.737,316.886,316.886,0,0,0-31.069-52.653,211.928,211.928,0,0,0-43.781-44.382c-8.542-6.346-16.9-12.943-24.913-19.951-14.667-12.853-27.81-27.028-38.107-43.7a65.721,65.721,0,0,0-8.692-10.938,80.067,80.067,0,0,0-27.5-18.256,118,118,0,0,0-23.509-6.657c-.862-.15-1.825-.491-2.5.221a15.527,15.527,0,0,0-2.005,2.827,1.414,1.414,0,0,0,.15,1.213c2.236,3.579,4.441,7.038,8.4,9.223a97.066,97.066,0,0,1,21.394,16.532,157.368,157.368,0,0,1,21.946,28.282c5.263,8.4,10.055,17.073,14.737,25.825a144.313,144.313,0,0,0,13.905,21.7c10.026,12.652,22.3,22.056,37.936,26.868a81.353,81.353,0,0,1,26.8,14.477,103.371,103.371,0,0,1,21.053,22.688c8.161,11.92,16.983,23.329,26.016,34.6a120.965,120.965,0,0,0,10.035,10.978c.5.481.972,1.113,1.9.962M240.48,349.752c.06.13.09.311.191.391,5.053,3.729,10.416,5.444,16.762,3.439,15.85-4.963,31.67-10.025,47.26-15.77,22.718-8.4,44.914-17.986,66.077-29.826,5.594-3.138,11.078-6.466,16.572-9.775a16.966,16.966,0,0,0,6.9-7.7,4.708,4.708,0,0,0-.912-5.634A27.151,27.151,0,0,0,390.049,282a23.365,23.365,0,0,0-6.276-3.008c-16.6-5.945-33.324-11.5-50.127-16.833-7.359-2.326-14.627-2.155-22.036-1.333a1.467,1.467,0,0,0-1.383,1.4,3.061,3.061,0,0,0,1.634,3.629c4.191,2.346,8.321,4.822,12.472,7.248.582.351,1.343.622.932,1.7-4.271.612-8.592,1.263-12.913,1.865-6.346.872-12.7,1.7-19.048,2.607a35.844,35.844,0,0,0-9.294,2.346c-3.429,1.454-5.293,3.97-5.233,7.79a22.22,22.22,0,0,0,.441,5.213c1.143,4.511,2.216,9.053,3.409,13.554a26.8,26.8,0,0,1,.912,7.78,12.4,12.4,0,0,1-3.739,8.612,27.629,27.629,0,0,1-5.955,4.411c-10.537,5.955-20.712,12.5-30.979,18.9a6.193,6.193,0,0,0-2.386,1.865m90.489-134.06a4.3,4.3,0,0,0-1.123-.231c-6.115.441-12.181,1.063-17.675,4.181-1.383.792-2.917,1.313-4.371,1.985-10.166,4.7-20.3,9.494-29.815,15.479a41.921,41.921,0,0,0-8.1,6.577,93.165,93.165,0,0,0-7.629,9.554c-1.444,1.985-3.228,3.729-4.281,6,1.6,2.216,4.241,2.917,6.416,4.241a84.993,84.993,0,0,0,13.955,7.188,24.836,24.836,0,0,0,9.394,1.624,12.044,12.044,0,0,0,10.607-5.574c11.178-15.98,21.5-32.532,32.061-48.924.381-.592.912-1.173.561-2.1" transform="translate(15593.219 15035.975)" fill="#c9b584"/><path d="M115.373,65.867a7.412,7.412,0,0,1-.982,1.253c-9.083,6.8-19.148,10.346-30.638,9.253a54.376,54.376,0,0,1-8.612-1.444c-1.093-.281-1.424-1.093-.782-1.955C79.723,65.8,86.43,60.8,95.633,59.811a22.539,22.539,0,0,1,6.506.581,35.01,35.01,0,0,1,13.234,5.474" transform="translate(15823.182 15274.104)" fill="#c9b584"/></g></svg>