<svg xmlns="http://www.w3.org/2000/svg" xmlns:xlink="http://www.w3.org/1999/xlink" width="1804.691" height="1800.08" viewBox="0 0 1804.691 1800.08"><defs><clipPath id="a"><rect width="1804.691" height="1800.08" fill="#c9b584"/></clipPath></defs><g clip-path="url(#a)"><path d="M893.32,1C400.733,1.551,1.541,400.733,1,893.32c48.984,1183.779,1735.847,1183.448,1784.641-.01C1785.1,400.723,1385.908,1.551,893.32,1" transform="translate(9.025 9.025)" fill="none"/><path d="M902.346,10.025c492.588.551,891.769,399.723,892.32,892.31-24.4,591.8-458.361,887.719-892.35,887.719-433.879,0-867.808-295.89-892.29-887.709.541-492.588,399.733-891.769,892.32-892.32M902.356,0h-.02c-240.91.271-467.4,94.229-637.755,264.58S.261,661.425,0,902.336c11.489,278.064,113.838,510.734,295.97,673.276C458.161,1720.368,673.5,1800.08,902.316,1800.08c228.87,0,444.245-79.722,606.446-224.479,182.151-162.552,284.47-395.221,295.919-672.854-.261-241.331-94.219-467.825-264.57-638.177S1143.266.271,902.356,0" fill="#c9b584"/><path d="M141.819,186.042c-.1-12.933,2.607-16.823-17.966-22.066l-85.717-23.9C17.8,133.91,18.086,138.662,11.3,149.65L7.2,148.5,26.748,78.42l4.1,1.143c-.7,14.6-6.306,20.873,16.853,26.176l80.975,22.577c24.472,7.469,22.337.742,26.517-13.193,9.163-30.187.221-31.3-15.72-43.811l3.058-5.354L175.1,82.56,145.929,187.175Z" transform="translate(64.965 595.297)" fill="#c9b584"/><path d="M129.438,204.1c5.013-11.92,9.053-14.417-7.77-27.389L52.412,120.826c-16.221-13.7-17.825-9.233-28.422-1.825l-3.308-2.677L87.281,33.8,110.53,52.554l-3.359,4.161C89.5,42.658,77.075,62.84,61.515,82.369L102.188,115.2c12.381-16,30.407-30.457,14.627-43.58l2.677-3.328,34.036,27.48-2.677,3.318c-17.925-13.123-26.246,6.276-40.362,22.818,10.968,5.624,45.926,47.24,54.217,28.663,18.056-19.77,23.67-33.605,11.2-49.906l4.511-3.218,20.552,24.813-68.2,84.524Z" transform="translate(186.663 305.022)" fill="#c9b584"/><path d="M59.741,181.178c13.885-11.96-9.685-137.117-8.01-155.624L76.113,13.263C92.334,23.579,174.592,118.189,193.47,113.707l1.925,3.8-58.107,29.314-1.915-3.8c23.84-11.609-3.008-26.367-14.948-40.523L75.662,125.1c2.436,16.712,1.664,48.6,23.139,36.382l1.915,3.8-39.059,19.7Zm52.453-86.94C102.139,83.521,73.266,57.024,65.636,45.545l-.762.391c4.191,13.965,7.1,52.4,9.414,67.441Z" transform="translate(466.121 119.704)" fill="#c9b584"/><path d="M128.7,55.98c-3.509-4.612-6.827-10.1-7.95-13.494l-1.063.03c2.737,20.582-3.489,109.6,14.246,103.211l11.138,1.9.08,4.271L91.409,153l-.09-4.271c16.041-5.414,15.409.17,15.549-43.209l-1.4-68.9c.561-23.74-6.968-19.87-21.154-23.048l-.1-4.481L135.2,8.038c8.07,12.081,71.832,88.915,74.84,101.156l.862-.02c-4.722-34.888,10.426-102.8-25.053-97.888l-.09-4.261,53.766-1.093.09,4.261C223.554,15.648,224.2,10,224.055,53.413l1.995,98.57-20.692.411Z" transform="translate(760.038 53.548)" fill="#c9b584"/><path d="M114.22,136.565c12.772,2.055,16.131,5.444,24.8-13.985L177.1,42.156c9.5-18.988,4.792-19.519-4.913-28.051l1.825-3.86C224.068,36.712,327.77,62.086,287.238,139.613c-32.222,75.381-122.52,28.813-174.833.822Zm66.98,25.094c60.624,30.066,120.916-105.176,35.68-120.275l-43.64,92.2c-11.259,22.517-4.862,21.775,7.96,28.071" transform="translate(1014.5 92.465)" fill="#c9b584"/><path d="M230.337,119.734c25.033,42.5,86.549-10.5,47.771-41.385L194.266,145.7c-16.853,12.913-12.833,15.429-7.86,27.359l-3.328,2.667L140.2,122.33l3.328-2.667c10.587,7.429,12.151,11.91,28.422-1.765l69.376-55.711c16.853-12.933,12.843-15.459,7.84-27.379l3.328-2.667,46.628,58.067c43.029,40.2-4.952,96.184-43.691,59.721-4.7,20.131-26.8,67.992-18.778,85.687l-3.328,2.667-30.457-37.916c6.928-20.352,20.251-60.333,27.47-80.634" transform="translate(1265.351 290.094)" fill="#c9b584"/><path d="M215.837,66.71c94.94-23.77,137.779,130.761,35.009,150.692C157.57,242.365,114.7,83.754,215.837,66.71m27.028,114.43c87.161-19.84,70.418-98.7-18.206-78.348-87.181,19.84-70.439,98.69,18.206,78.348" transform="translate(1422.403 579.717)" fill="#c9b584"/><path d="M101.466,200.267c16.171,46.628,86.92,6.747,54.979-31.179L60.984,218.624c-19.078,9.364-15.61,12.632-13.073,25.294l-3.79,1.965-31.55-60.794,3.8-1.965c8.923,9.364,9.554,14.076,28.211,3.87l78.98-40.974c19.078-9.364,15.6-12.622,13.063-25.294l3.79-1.965,34.317,66.108c34.237,47.891-23.78,93.326-54.638,49.947-8.512,18.828-39.66,61.4-35.239,80.313l-3.79,1.975L58.658,273.924c10.807-18.587,31.72-55.18,42.808-73.657" transform="translate(113.458 1071.865)" fill="#c9b584"/><path d="M34.527,218.873c16.772,7.469,119.633-67.661,137.087-74.1L193.2,161.507c-2.356,19.089-52.453,134.02-40.282,149.128l-2.6,3.379L98.88,274.153l2.607-3.378c20.712,16.572,22.517-14.046,30.166-30.9l-39.64-30.718C78,218.542,48.813,231.575,69.1,245.681L66.5,249.049l-34.578-26.8ZM135.573,228.9c5.354-13.695,16.9-51.13,23.951-62.97l-.662-.521c-10.8,9.795-44.292,28.913-56.864,37.465Z" transform="translate(288.091 1306.652)" fill="#c9b584"/><path d="M64.118,290.685c12.943.04,16.793,2.877,22.337-17.675L111.6,187.674c6.456-20.241,1.714-20.041-9.193-26.958l1.2-4.1,73.486,21.655c54.9,8.3,49.295,70.719-2.266,65.837l-.241.8c54.167,15.9,30.4,93.407-35.32,72.353L62.915,294.785Zm63.421,13.554c44.934,11.79,55.781-61.526,5.765-64.142-.912,12.742-27.84,63.992-5.765,64.142m17.414-70.488c40.513,12.782,53.044-51.2,6.126-54.037l-15.128,51.38Z" transform="translate(567.833 1413.512)" fill="#c9b584"/><path d="M120.149,312.191c11.67-5.574,16.331-4.772,12.361-25.645l-14.687-87.762c-3.048-21.023-7.218-18.738-20.051-20.221l-.7-4.2,104.585-17.514,4.933,29.454-5.243.882c-3.89-22.236-26.587-15.409-51.19-11.118l8.622,51.561c19.89-3.73,42.929-2.607,39.871-22.9l4.211-.712,7.218,43.139-4.211.722c-4.682-21.725-23.79-12.732-45.325-9.725,4.461,11.479,2.987,65.807,21.5,57.415,26.617-2.807,40.031-9.4,41.525-29.886l5.5.581-1.113,32.212L120.851,316.412Z" transform="translate(876.104 1415.615)" fill="#c9b584"/><path d="M206.253,301.513c8.181-10.025,12.722-11.3.21-28.462l-50.819-73.035c-11.74-17.715-14.537-13.845-26.778-9.715l-2.436-3.5,59.731-41.555,2.436,3.489c-9.855,10.807-18.186,12.061-3.709,30.928l48.022,68.995c14.116,21.354,16.732,14.768,28.843,6.717,26.3-17.424,20.121-23.961,15.81-43.771l5.765-2.175,14.517,33.555L208.7,305.032Z" transform="translate(1141.09 1310.911)" fill="#c9b584"/><path d="M186.22,266.874c-84.955-48.613-8.792-189.741,79.141-132.917,84.554,46.608,5.6,190.693-79.141,132.917M246,165.627c-76.594-46.057-119.152,22.417-41.154,69.125,76.654,46.1,119.162-22.387,41.154-69.125" transform="translate(1346.683 1089.281)" fill="#c9b584"/><path d="M634.761,30.41C300.715,30.771,30.009,301.477,29.648,635.523c33.224,802.764,1177.132,802.533,1210.226,0C1239.513,301.477,968.807,30.771,634.761,30.41" transform="translate(267.585 274.462)" fill="none"/><path d="M834.538,1212.7c46.758-47.49,86.589-112.956,116.6-191.676h157A581.681,581.681,0,0,1,834.538,1212.7M198.587,1021.037H355.6c30.006,78.71,69.837,144.2,116.6,191.686a582.016,582.016,0,0,1-273.613-191.686M472.25,111.564C425.471,159.054,385.62,224.54,355.6,303.279H198.587A581.418,581.418,0,0,1,472.25,111.564m635.881,191.716h-157c-30.016-78.719-69.847-144.225-116.625-191.716a581.354,581.354,0,0,1,273.623,191.716m-96.284,331.259c-2.316-100.254-17.123-193.821-41.926-276.049h177.018a575.765,575.765,0,0,1,85.446,276.049ZM680.969,965.807V689.768h275.7C954.06,789.9,937.358,884.3,910.42,965.807Zm0,273.433v-218.2h208.8c-50.658,120.405-125.448,203.094-208.8,218.2m-55.23-218.2v218.2c-83.351-15.148-158.12-97.8-208.769-218.2ZM350.09,689.768H625.739V965.807H396.318C369.379,884.3,352.677,789.9,350.09,689.768M625.739,358.489V634.538H350.09C352.7,534.375,369.379,440,396.318,358.489Zm0-273.443V303.279H416.97C467.618,182.884,542.388,100.195,625.739,85.046M910.42,358.489C937.338,440,954.04,534.375,956.647,634.538H680.969V358.489Zm-229.451-55.21V85.026c83.371,15.128,158.141,97.818,208.8,218.253ZM159.8,358.489H336.807c-24.793,82.228-39.62,175.8-41.926,276.049H74.342A575.885,575.885,0,0,1,159.8,358.489M74.342,689.768H294.881c2.306,100.254,17.133,193.821,41.926,276.039H159.8A575.915,575.915,0,0,1,74.342,689.768m1072.6,276.039H969.921c24.8-82.218,39.61-175.785,41.926-276.039h220.519a576,576,0,0,1-85.426,276.039M653.369,27.23C-181.1,42.2-180.925,1282.259,653.4,1297.087c834.353-14.968,834.253-1255.009-.03-1269.857" transform="translate(248.997 245.762)" fill="#c9b584" opacity="0.545"/><path d="M237.7,1155.534c-2.617-3.158-4.862-5.825-7.088-8.512a9.831,9.831,0,0,1-1.774-3.469c-5.524-18.136-11.118-36.242-16.592-54.388a307.662,307.662,0,0,1-9.173-37.776c-2.216-13.113-3.589-26.3-2.767-39.63a137.488,137.488,0,0,1,3.058-22.948,163.353,163.353,0,0,0,3.449-22.888,152.887,152.887,0,0,1,3.659-21.986c2.266-9.484,4.271-19.048,6.988-28.432a138.5,138.5,0,0,1,10-25.164c11.71-22.677,24.191-44.924,36.563-67.26,9.975-17.976,19.76-36.071,29.735-54.037,8.893-16.021,15.429-32.994,20.723-50.478a514.543,514.543,0,0,0,16.051-69.827c4.521-29.134,14.316-56.433,27.79-82.519,11.529-22.326,24.983-43.5,38.878-64.383,5.6-8.431,12.632-15.64,20.2-22.347,10.837-9.594,22.667-17.875,34.678-25.886a335.5,335.5,0,0,0,30.517-22.728c23.2-19.69,42.127-42.758,55.771-70.027a107.585,107.585,0,0,0,10.276-31.009,84.772,84.772,0,0,0-3.97-42.638,74.4,74.4,0,0,0-12.6-22.868c-.461-.561-.932-1.123-1.434-1.624a.7.7,0,0,0-1.012-.09.49.49,0,0,0-.12.13c-2.466,4.932-5.564,9.624-6.406,15.229-.682,4.461-1.233,8.963-1.714,13.454-1.153,10.727-2.286,21.444-3.308,32.182-.491,5.083-.612,10.186-1.093,15.279a71.79,71.79,0,0,1-15.85,38.688,88.4,88.4,0,0,1-11.539,11.94q-37.5,32.242-74.96,64.513-13.76,11.865-27.389,23.85a58.517,58.517,0,0,0-12.762,16.552q-12.271,22.692-24.442,45.465c-7.689,14.416-15.178,28.923-22.337,43.6a114.07,114.07,0,0,1-24.181,32.482c-11.118,10.617-23.64,19.419-36.533,27.74a23.33,23.33,0,0,1-8.993,3.2,60.285,60.285,0,0,1-14.838.491q-20.061-1.609-40.1-3.349c-10.888-.972-21.755-2.135-32.643-3.088-5.374-.481-10.767-.712-16.151-1.1a140.042,140.042,0,0,1-38.447-7.78A86.394,86.394,0,0,1,90.43,617.751a55.074,55.074,0,0,1-13.935-17.224,113.131,113.131,0,0,1-7.73-19.028q-2.978-9.594-5.694-19.279c-1.764-6.256.622-10.587,6.747-12.552a13.881,13.881,0,0,1,12.492,2,70.84,70.84,0,0,0,10.647,6.015,81.219,81.219,0,0,0,22.728,6.075c7.96,1.023,15.96,1.444,23.971,1.925a208,208,0,0,1,43.019,7.349c12.512,3.459,24.853,7.459,37.234,11.319a327.924,327.924,0,0,0,32.984,8.6c1.634.321,2,.3,2.777-1.233.882-1.724.8-2.316-.451-3.439a36.071,36.071,0,0,0-11.459-7.058c-33.515-12.321-66.98-24.8-100.485-37.184-10.4-3.83-20.893-7.389-31.069-11.78-4.822-2.075-9.524-4.411-14.206-6.787a41.22,41.22,0,0,1-14.637-12.883,52.1,52.1,0,0,1-9.424-23.73,142.521,142.521,0,0,1,.09-38.808,23.653,23.653,0,0,1,3.469-9.354,102.107,102.107,0,0,1,6.677-9.213c10.286-13.244,20.472-26.577,30.878-39.731a16.255,16.255,0,0,0,3.469-11.82c-.1-1.454-.441-1.865-1.835-1.734a76.745,76.745,0,0,0-12.061,2.045q-20.753,5.369-41.485,10.727-4.662,1.2-9.324,2.386c-2.907.722-2.917.712-4.331-2.035l-.6-1.163a2.665,2.665,0,0,1-.03-2.516c1.454-3.028,2.857-6.075,4.4-9.043a14.147,14.147,0,0,1,3.93-4.642c8.181-6.346,16.281-12.792,24.522-19.068a160.305,160.305,0,0,1,28.512-16.993c22.377-10.677,45.235-20.251,68.153-29.705,7.148-2.947,14.306-5.855,21.414-8.862A76.655,76.655,0,0,0,225.081,282.4a65.414,65.414,0,0,0,9.414-12.03c12.371-20.622,29.836-35.63,51.019-46.6a210.045,210.045,0,0,1,31.139-12.722q14.331-4.722,28.753-9.143a319.436,319.436,0,0,0,61.225-26.718,80.008,80.008,0,0,0,11.068-7.028A38.344,38.344,0,0,0,432.066,142.5a80,80,0,0,1,1.714-10.787c2.917-10.457,9.073-18.146,19.3-22.276a5.893,5.893,0,0,1,6.948,1.815,1.419,1.419,0,0,1,.14,1.193c-.471,1.063-1,2.1-1.574,3.108q-12.948,23.083-25.9,46.177c-1.213,2.165-2.436,4.321-3.609,6.506a3.467,3.467,0,0,0,1.434,5.093,1.466,1.466,0,0,0,1.213.07c5.955-3.328,12.291-5.985,16.823-11.519q25.625-31.339,49.926-63.721c11.81-15.77,25.535-29.555,41.886-40.643a137.3,137.3,0,0,1,49.987-21.274,142.853,142.853,0,0,1,40.9-2.3,177.886,177.886,0,0,1,41.9,8.492Q722.9,59.4,750.492,104.19c8.171,13.3,16,26.808,23.76,40.332,9.153,15.93,18.256,31.891,27.79,47.6a120.263,120.263,0,0,0,16.482,22.016,91.028,91.028,0,0,0,9.444,8.471,179.219,179.219,0,0,1,32.583,32.212,129.143,129.143,0,0,1,24.372,51.821,135.453,135.453,0,0,1,2.506,40.462c-.812,9.294-1.564,18.607-1.694,27.941-.351,25,3.108,49.435,12.782,72.714,1.785,4.291,3.7,8.562,5.835,12.712a129.794,129.794,0,0,1,13.173,41.034,138.779,138.779,0,0,1,.531,34.9c-.491,4.491-1.263,8.963-1.6,13.464a72.6,72.6,0,0,0-.14,11.339,211.821,211.821,0,0,1-6.988,71.882,228.039,228.039,0,0,1-26.888,60.062,323.979,323.979,0,0,1-33.565,44.212c-32.171,36-69.6,65.506-111.262,89.717-7.309,4.251-14.7,8.391-22.216,12.261a121.672,121.672,0,0,0-34.307,26.748c-6.607,7.238-12.632,14.908-18.547,22.7-6.617,8.722-13.153,17.494-20.2,25.866-1.774,2.115-1.724,2.356.1,4.361,1.343,1.474,1.644,1.524,3.329.521.872-.531,1.714-1.113,2.566-1.674l38.3-25.374L856.26,780.152a11.8,11.8,0,0,1,1.464-.952c1.253-.612,2.416-2.516,3.74-1.564,1.1.8.271,2.727.16,4.15-1.2,15.519-5.3,30.407-10.487,45a184.237,184.237,0,0,1-24.973,47.931c-16.281,22.136-37.194,38.448-62.177,49.706-8.121,3.649-16.562,6.466-24.863,9.654a160.012,160.012,0,0,0-19.84,9.153,184.056,184.056,0,0,1-101.056,22.5,111.5,111.5,0,0,0-14.868-.451,46.786,46.786,0,0,0-31.049,13.364c-25.956,25.294-56.854,41.936-91.261,52.483a383.151,383.151,0,0,1-45.525,10.677c-14.066,2.486-27.971,5.765-41.9,8.963q-9.579,2.226-19.169,4.431c-21.264,4.932-40.833,13.755-59.1,25.595-16.221,10.506-30.938,22.888-44.974,36.111-1.063,1.013-2.1,2.055-3.168,3.028a139.106,139.106,0,0,0-21.424,24.773c-1.965,2.887-4.1,5.674-6.176,8.491-.5.682-1.073,1.3-1.915,2.336m533.481-403.5c.221-.04.4,0,.5-.08,5.584-4.211,11.138-8.492,15.559-13.986q6.286-7.865,12.381-15.86c7.79-10.216,15.72-20.281,24.743-29.485a166.776,166.776,0,0,0,20.923-26.337c19.068-29.455,26.307-61.626,22.046-96.394a20.824,20.824,0,0,1,.7-7.339,1.446,1.446,0,0,1,1.6-1.173c.722.03,1.444.16,2.166.241,3.188.341,6.376.692,9.564,1.013,1.624.15,2.075-.361,1.975-2.035-.12-2.025-.331-4.06-.381-6.105-.341-15.018-.541-30.036-1.825-45a160.573,160.573,0,0,0-5.424-30.968c-3.97-13.755-10.256-26.377-19.67-37.224a211.35,211.35,0,0,1-16.311-21.635,212.111,212.111,0,0,0-54.408-56.323c-20.422-14.457-42.8-24.883-66.629-32.312a242.345,242.345,0,0,1-26.607-9.915c-16.111-7.148-30.958-16.3-43.871-28.382a29.965,29.965,0,0,0-9.484-6.116c-2.035-.782-4.06-1.624-6.1-2.426-1.764-.682-1.865-.6-3.008.612-1.323,1.424-1.935,2.837-.722,4.672a15.191,15.191,0,0,1,1.233,2.8,29.8,29.8,0,0,0,7.96,11.3c17.344,15.84,34.527,31.841,51.851,47.691,12.592,11.509,24.993,23.229,38.187,34.076,6.085,5,11.8,10.477,16.231,17.083,13.264,19.78,24.983,40.432,33.906,62.579a197.778,197.778,0,0,1,14.136,60.654,234.2,234.2,0,0,1-1.173,41.064q-1.083,10.226-2.146,20.442c-.9,8.682-1.694,17.394-2.757,26.076-.662,5.363-1.734,10.687-4.311,15.519-7.419,13.9-14.306,28.061-22.2,41.706-5.925,10.236-12.281,20.211-20.281,28.974-16.572,18.166-29.374,38.758-39.761,60.964-8.361,17.845-15.058,36.342-21.825,54.819a47.265,47.265,0,0,0-2.927,16.231c0,2.115.662,3.288,2.426,4.13,1.474.692,1.975.722,3.068-.481,2.747-3.028,5.514-6.035,8.141-9.163,6.105-7.258,11.4-15.138,17.013-22.768q20.467-27.85,40.824-55.791a27.982,27.982,0,0,1,5.374-5.724c3-2.316,6.065-4.542,9.133-6.787,1.143-.822,1.694-.662,2.326.712,1.885,4.1,3.69,8.261,5.574,12.361.652,1.424,1.013,3.028,2.266,4.1M398.21,978.174a6.194,6.194,0,0,0,1.895-2.386,178.515,178.515,0,0,0,16.141-33.415c1.123-3.168,2.306-6.3,3.629-9.374,8.542-19.961,21.434-36.332,39.861-48.1,5.043-3.208,9.905-6.687,14.627-10.356,19.7-15.309,39.851-29.986,60.924-43.38,23.931-15.2,48.874-28.442,75.4-38.588a60.853,60.853,0,0,0,16.131-9.514,99.967,99.967,0,0,0,12.411-11.69,306.825,306.825,0,0,0,25.836-33.645c21.494-32.2,37.615-67.08,50.5-103.492a183.029,183.029,0,0,0,9.374-42.608,172.48,172.48,0,0,0,.541-31.029,203.024,203.024,0,0,0-4.251-28.953A214.5,214.5,0,0,0,699.834,475.9c-5.394-9.845-11.228-19.459-16.812-29.194a355.205,355.205,0,0,1-22.116-44.633,197.676,197.676,0,0,1-9.374-29.1c-1.323-5.795-4.411-10.767-7.258-15.84-.992-1.774-2.546-.952-3.9-.692-1.3.251-1.734.8-1.674,2.136.331,7.569.261,15.168,1.935,22.627q10.151,45.43,20.352,90.86c4.692,21.043,9.695,42.036,12.171,63.521.992,8.552,1.714,17.113,1.985,25.715a227.428,227.428,0,0,1-.541,25.344A204.017,204.017,0,0,1,669.557,619a179.285,179.285,0,0,1-35.721,71.371,69.275,69.275,0,0,0-5.053,7.118,177.377,177.377,0,0,1-39.37,44.814,227.531,227.531,0,0,1-50.648,30.9A146.6,146.6,0,0,0,507.5,792.293c-11.078,8.812-21.675,18.186-32.041,27.82a206.553,206.553,0,0,0-31.179,36.513c-13.865,20.742-27.129,41.856-39.44,63.541-3.74,6.607-7.539,13.183-11,19.911-6.1,11.89-5.394,23.61,1.494,34.989.732,1.2,1.343,2.627,2.877,3.108m207.967-495.9q-.09-9.4-.712-18.8a281.974,281.974,0,0,0-3.98-31.63c-5.2-28.522-14.206-55.9-25.214-82.659-1.584-3.86-4.331-6.9-6.918-10.035-.4-.491-1.3-.331-1.393.211-1.033,5.885-2.476,11.7-1.965,17.765.672,8.121,1.323,16.271,1.945,24.4.5,6.547,1.193,13.093,1.364,19.63.511,20.291-.361,40.533-1.4,60.784a326.131,326.131,0,0,1-4.642,40.823,97.307,97.307,0,0,1-12.371,33.445c-6.928,11.489-15.88,21.214-25.936,29.986a226.072,226.072,0,0,1-24.8,18.687c-11.83,7.74-23.76,15.359-35.67,22.968-9.454,6.065-18.948,12.061-28.232,18.387a88.426,88.426,0,0,0-28.472,31.51c-2.5,4.622-5.023,9.223-7.419,13.885-7.048,13.765-13.835,27.65-21.083,41.295a326.433,326.433,0,0,0-26.557,68.343c-3.018,11.158-5.023,22.437-4.983,34.066a133.386,133.386,0,0,0,2.115,24.372c.892,4.712,2.125,9.374,3.308,14.026.531,2.1.842,2.226,3.048,2.4.291.02.582.05.872.06,1.414.02,1.845-.261,2.105-1.614a151.366,151.366,0,0,0,2.6-15.97c.541-6.847,1.484-13.6,2.617-20.372a213.508,213.508,0,0,1,17.314-55.791c13.885-29.535,33.856-54.358,58.869-75.17,18.637-15.509,38.407-29.485,58.578-42.909,13.113-8.722,26.477-17.063,39.941-25.234a135.934,135.934,0,0,0,30.988-25.475c14.928-16.632,24.492-36.081,29.956-57.626,4.471-17.635,6.085-35.6,6.135-53.736M593.555,141.114a91.955,91.955,0,0,0-17.194,2.135,132.934,132.934,0,0,0-20.221,7.028c-19.83,8.231-38.407,19.008-57.516,28.693a12.676,12.676,0,0,0-2.827,2.055c-2.9,2.677-3.1,5.414-.692,8.481a17.412,17.412,0,0,0,4.622,3.98,78.127,78.127,0,0,0,11.238,5.855,41.077,41.077,0,0,0,30.287,1.083c4.953-1.734,10.015-3.158,15.058-4.562,10.958-3.048,21.935-6.005,32.9-8.983a65.453,65.453,0,0,1,8.582-1.644,42.507,42.507,0,0,1,31.369,8.121,52.883,52.883,0,0,1,10.106,9.634,440.946,440.946,0,0,1,26.447,35.931,178.389,178.389,0,0,0,12.832,17.153c13.063,15.369,28.622,27.329,47.33,35.109q13.745,5.714,27.309,11.81a390.523,390.523,0,0,1,46.929,24.382,228.767,228.767,0,0,1,30.989,22.788c1.524,1.353,2.988,2.777,5.2,3,1.574.17,3.088.862,4.722.411.461-1.835-1.053-2.847-1.794-4.151a68.56,68.56,0,0,0-6-9.133c-18.687-23.048-40.683-42.1-67.09-55.9a236.813,236.813,0,0,1-26.467-16.231,137.312,137.312,0,0,1-20.552-17.645,185.225,185.225,0,0,1-22.677-29.394c-4.752-7.539-8.913-15.4-13.193-23.2a110.073,110.073,0,0,0-52.684-48.7,94.688,94.688,0,0,0-37.034-8.1M488.458,166.047c1.384-.06,2.426-.912,3.579-1.514,27.129-14.216,53.926-28.993,80.043-45,9.815-6.025,19.99-11.449,30.347-16.482,8.442-4.11,17.143-7.138,26.648-7.96a125.971,125.971,0,0,1,39.53,2.6c20.933,4.8,39.139,14.908,55.15,29.014q13.625,12.03,27.921,23.209c3.559,2.787,7.1,5.594,10.657,8.381,1.253.972,1.564.952,2.667.04a20.311,20.311,0,0,0,1.935-1.785,1.736,1.736,0,0,0,.351-2.015c-1.755-3.84-3.379-7.71-6.517-10.777-4.692-4.582-9.213-9.334-13.815-14.026-7.96-8.1-15.89-16.271-24.262-23.981-6.547-6.025-13.173-11.97-20.632-16.893-21.635-14.266-45.646-20.983-71.331-22.236a141.342,141.342,0,0,0-34.387,2.526c-14.577,2.9-28.342,7.91-40.9,15.94a208.172,208.172,0,0,0-20.562,15.579c-14.036,11.649-27.249,24.2-40.793,36.392a38.586,38.586,0,0,0-2.757,2.827c-5.554,6.2-7.72,16.251-2.857,26.166M861.513,348.078a7.446,7.446,0,0,0,.421-1.113,29.813,29.813,0,0,0-2.627-18.737,316.886,316.886,0,0,0-31.069-52.653,211.928,211.928,0,0,0-43.781-44.382c-8.542-6.346-16.9-12.943-24.913-19.951-14.667-12.853-27.81-27.028-38.107-43.7a65.721,65.721,0,0,0-8.692-10.938,80.067,80.067,0,0,0-27.5-18.256,118,118,0,0,0-23.509-6.657c-.862-.15-1.825-.491-2.5.221a15.527,15.527,0,0,0-2.005,2.827,1.414,1.414,0,0,0,.15,1.213c2.236,3.579,4.441,7.038,8.4,9.223a97.066,97.066,0,0,1,21.394,16.532,157.368,157.368,0,0,1,21.946,28.282c5.263,8.4,10.055,17.073,14.737,25.825a144.313,144.313,0,0,0,13.905,21.7c10.026,12.652,22.3,22.056,37.936,26.868a81.353,81.353,0,0,1,26.8,14.477,103.371,103.371,0,0,1,21.053,22.688c8.161,11.92,16.983,23.329,26.016,34.6a120.965,120.965,0,0,0,10.035,10.978c.5.481.972,1.113,1.9.962M240.48,349.752c.06.13.09.311.191.391,5.053,3.729,10.416,5.444,16.762,3.439,15.85-4.963,31.67-10.025,47.26-15.77,22.718-8.4,44.914-17.986,66.077-29.826,5.594-3.138,11.078-6.466,16.572-9.775a16.966,16.966,0,0,0,6.9-7.7,4.708,4.708,0,0,0-.912-5.634A27.151,27.151,0,0,0,390.049,282a23.365,23.365,0,0,0-6.276-3.008c-16.6-5.945-33.324-11.5-50.127-16.833-7.359-2.326-14.627-2.155-22.036-1.333a1.467,1.467,0,0,0-1.383,1.4,3.061,3.061,0,0,0,1.634,3.629c4.191,2.346,8.321,4.822,12.472,7.248.582.351,1.343.622.932,1.7-4.271.612-8.592,1.263-12.913,1.865-6.346.872-12.7,1.7-19.048,2.607a35.844,35.844,0,0,0-9.294,2.346c-3.429,1.454-5.293,3.97-5.233,7.79a22.22,22.22,0,0,0,.441,5.213c1.143,4.511,2.216,9.053,3.409,13.554a26.8,26.8,0,0,1,.912,7.78,12.4,12.4,0,0,1-3.739,8.612,27.629,27.629,0,0,1-5.955,4.411c-10.537,5.955-20.712,12.5-30.979,18.9a6.193,6.193,0,0,0-2.386,1.865m90.489-134.06a4.3,4.3,0,0,0-1.123-.231c-6.115.441-12.181,1.063-17.675,4.181-1.383.792-2.917,1.313-4.371,1.985-10.166,4.7-20.3,9.494-29.815,15.479a41.921,41.921,0,0,0-8.1,6.577,93.165,93.165,0,0,0-7.629,9.554c-1.444,1.985-3.228,3.729-4.281,6,1.6,2.216,4.241,2.917,6.416,4.241a84.993,84.993,0,0,0,13.955,7.188,24.836,24.836,0,0,0,9.394,1.624,12.044,12.044,0,0,0,10.607-5.574c11.178-15.98,21.5-32.532,32.061-48.924.381-.592.912-1.173.561-2.1" transform="translate(438.219 301.377)" fill="#c9b584"/><path d="M115.373,65.867a7.412,7.412,0,0,1-.982,1.253c-9.083,6.8-19.148,10.346-30.638,9.253a54.376,54.376,0,0,1-8.612-1.444c-1.093-.281-1.424-1.093-.782-1.955C79.723,65.8,86.43,60.8,95.633,59.811a22.539,22.539,0,0,1,6.506.581,35.01,35.01,0,0,1,13.234,5.474" transform="translate(668.182 539.507)" fill="#c9b584"/></g></svg>